<?xml version="1.0" encoding="UTF-8" standalone="no"?>
<!-- Created with Inkscape (http://www.inkscape.org/) -->

<svg
   width="210mm"
   height="297mm"
   viewBox="0 0 210 297"
   version="1.1"
   id="svg1"
   xml:space="preserve"
   inkscape:version="1.4 (e7c3feb100, 2024-10-09)"
   sodipodi:docname="adechlien-logo.svg"
   xmlns:inkscape="http://www.inkscape.org/namespaces/inkscape"
   xmlns:sodipodi="http://sodipodi.sourceforge.net/DTD/sodipodi-0.dtd"
   xmlns="http://www.w3.org/2000/svg"
   xmlns:svg="http://www.w3.org/2000/svg"><sodipodi:namedview
     id="namedview1"
     pagecolor="#505050"
     bordercolor="#ffffff"
     borderopacity="1"
     inkscape:showpageshadow="0"
     inkscape:pageopacity="0"
     inkscape:pagecheckerboard="1"
     inkscape:deskcolor="#505050"
     inkscape:document-units="mm"
     inkscape:zoom="0.68074578"
     inkscape:cx="204.92231"
     inkscape:cy="525.15933"
     inkscape:window-width="1534"
     inkscape:window-height="803"
     inkscape:window-x="0"
     inkscape:window-y="0"
     inkscape:window-maximized="1"
     inkscape:current-layer="layer1" /><defs
     id="defs1"><linearGradient
       id="swatch1"
       inkscape:swatch="solid"><stop
         style="stop-color:#000000;stop-opacity:1;"
         offset="0"
         id="stop1" /></linearGradient><linearGradient
       id="swatch3"
       inkscape:swatch="solid"><stop
         style="stop-color:#afd0fe;stop-opacity:1;"
         offset="0"
         id="stop3" /></linearGradient></defs><g
     inkscape:label="Layer 1"
     inkscape:groupmode="layer"
     id="layer1"><path
       style="fill:#dfe5f9;fill-opacity:1;stroke:#7088c8;stroke-width:9;stroke-linecap:round;stroke-linejoin:bevel;stroke-dasharray:none;stroke-dashoffset:13.6063;stroke-opacity:1"
       d="m 103.7724,99.596483 c 0,0 36.7345,2.354767 41.20857,-41.915004 0,0 0.23548,-38.61832 -40.50214,-42.856915 0,0 -35.792593,-0.235478 -43.327874,39.324753 0,0 -2.119291,44.269779 42.621444,45.447166 z"
       id="path3" /><path
       style="fill:#7088c8;fill-opacity:1;stroke:none;stroke-width:0;stroke-linecap:round;stroke-linejoin:bevel;stroke-dasharray:none;stroke-dashoffset:13.6063;stroke-opacity:1"
       d="m 103.71091,78.830764 c 0,0 19.64221,2.357065 20.166,-24.094453 0,0 -1.30948,-15.451877 -19.90411,-18.856528 0,0 -24.356347,1.047585 -22.523074,24.356349 0,0 3.40466,20.689802 22.261184,18.594632 z"
       id="path2" /><path
       style="fill:#dfe5f9;fill-opacity:1;stroke:#7088c8;stroke-width:8.99999;stroke-linecap:round;stroke-linejoin:bevel;stroke-dasharray:none;stroke-dashoffset:13.6063;stroke-opacity:1"
       d="m 60.5695,230.00989 -1.010293,50.17785 42.432273,-23.91025"
       id="path5" /><path
       style="fill:#dfe5f9;fill-opacity:1;stroke:#7088c8;stroke-width:8.99999;stroke-linecap:round;stroke-linejoin:bevel;stroke-dasharray:none;stroke-dashoffset:13.6063;stroke-opacity:1"
       d="m 59.944012,159.62619 c 0,0 2.694112,-38.72787 43.105808,-40.74846 40.41169,-2.02058 42.76904,46.13669 42.76904,46.13669 l -0.33676,114.4998 -84.864559,-48.8308 z"
       id="path4" /><path
       style="fill:#7088c8;fill-opacity:1;stroke:none;stroke-width:0;stroke-linecap:round;stroke-linejoin:bevel;stroke-dasharray:none;stroke-dashoffset:13.6063;stroke-opacity:1"
       d="m 81.833679,161.31001 v 57.58667 l 42.095511,24.58377 0.33677,-82.5072 c 0,0 0.33676,-20.54261 -19.86909,-22.22643 -20.205841,-1.68383 -22.563191,22.56319 -22.563191,22.56319 z"
       id="path6" /></g></svg>
