<?xml version="1.0" encoding="UTF-8" standalone="no"?>
<!-- Created with Inkscape (http://www.inkscape.org/) -->

<svg
   width="512"
   height="512"
   viewBox="0 0 512 512"
   version="1.1"
   id="svg1"
   xml:space="preserve"
   inkscape:version="1.4 (e7c3feb100, 2024-10-09)"
   sodipodi:docname="hess-icon.svg"
   xmlns:inkscape="http://www.inkscape.org/namespaces/inkscape"
   xmlns:sodipodi="http://sodipodi.sourceforge.net/DTD/sodipodi-0.dtd"
   xmlns="http://www.w3.org/2000/svg"
   xmlns:svg="http://www.w3.org/2000/svg"><sodipodi:namedview
     id="namedview1"
     pagecolor="#ffffff"
     bordercolor="#111111"
     borderopacity="1"
     inkscape:showpageshadow="0"
     inkscape:pageopacity="0"
     inkscape:pagecheckerboard="1"
     inkscape:deskcolor="#d1d1d1"
     inkscape:document-units="px"
     inkscape:zoom="1.1738281"
     inkscape:cx="256"
     inkscape:cy="256"
     inkscape:window-width="1534"
     inkscape:window-height="803"
     inkscape:window-x="0"
     inkscape:window-y="0"
     inkscape:window-maximized="1"
     inkscape:current-layer="layer1" /><defs
     id="defs1" /><g
     inkscape:label="Layer 1"
     inkscape:groupmode="layer"
     id="layer1"><g
       id="g9"
       transform="matrix(1.2982048,0,0,1.2982048,-143.80387,-57.155032)"><path
         style="fill:#8afafc"
         d="m 307.71672,215.75484 -35.75,-0.26263 -0.0134,-10.73737 c -0.007,-5.90555 0.52839,-17.18585 1.19061,-25.06734 0.93608,-11.14088 0.93718,-14.75726 0.005,-16.25 -1.174,-1.87988 -0.45431,-1.92003 34.41639,-1.92003 33.54639,0 35.57069,0.10167 34.84484,1.75 -1.02184,2.32048 -1.01059,2.88866 0.47017,23.75 0.70272,9.9 1.12214,20.475 0.93207,23.5 l -0.3456,5.5 z m 71.85419,-16.73737 c -0.76012,-18.85908 -1.99127,-33.08279 -3.09439,-35.75 -0.68361,-1.65287 2.0294,-1.75 48.88321,-1.75 h 49.60699 v 26.98089 26.98088 l -47.35531,0.26912 -47.35531,0.26911 z m -238.60419,-8.91821 c 0,-13.98002 0.27315,-26.13002 0.60699,-27 0.54216,-1.41286 5.88456,-1.58179 50.02305,-1.58179 h 49.41607 l -1.4578,2.25 c -1.49091,2.30112 -3.57417,25.48178 -3.60196,40.07955 -0.008,3.94375 -0.285,8.18295 -0.61664,9.42045 l -0.60297,2.25 h -46.88337 -46.88337 z"
         id="path15" /><path
         style="fill:#f4fd8b"
         d="m 153.83917,343.76747 c -1.24388,-1.58605 -1.20851,-1.62142 0.37755,-0.37755 0.9625,0.75484 1.75,1.54234 1.75,1.75 0,0.82303 -0.82118,0.2933 -2.12755,-1.37245 z m 87.87755,-14.91228 c 0.6875,-0.27741 1.8125,-0.27741 2.5,0 0.6875,0.27741 0.125,0.50439 -1.25,0.50439 -1.375,0 -1.9375,-0.22698 -1.25,-0.50439 z m 27.0625,-0.0208 c 0.72188,-0.28887 1.58438,-0.25335 1.91667,0.0789 0.33229,0.3323 -0.25834,0.56864 -1.3125,0.52522 -1.16495,-0.048 -1.4019,-0.28494 -0.60417,-0.60416 z m 103,0 c 0.72188,-0.28887 1.58438,-0.25335 1.91667,0.0789 0.33229,0.3323 -0.25834,0.56864 -1.3125,0.52522 -1.16495,-0.048 -1.4019,-0.28494 -0.60417,-0.60416 z m -30.94005,-2.06689 c -1.24388,-1.58605 -1.20851,-1.62142 0.37755,-0.37755 1.66575,1.30637 2.19548,2.12755 1.37245,2.12755 -0.20766,0 -0.99516,-0.7875 -1.75,-1.75 z m 38.12755,0.37245 c 0,-0.20766 0.7875,-0.99516 1.75,-1.75 1.58606,-1.24387 1.62143,-1.2085 0.37756,0.37755 -1.30637,1.66575 -2.12756,2.19548 -2.12756,1.37245 z m -40.168,-3.71701 c -0.5769,-1.41538 -4.13206,-1.57911 -31.63669,-1.45701 l -30.98675,0.13755 -1.0727,-8.54299 c -2.033,-16.19076 -3.31143,-35.48223 -2.68433,-40.50636 l 0.62866,-5.03663 34.7099,0.5 34.70991,0.5 0.32247,9.5 c 0.17735,5.225 -0.41599,16.925 -1.31855,26 -0.90255,9.075 -1.72673,17.4 -1.83149,18.5 -0.15533,1.6308 -0.31047,1.70564 -0.84043,0.40544 z M 141.56838,317.6279 c -0.33091,-2.41426 -0.60166,-14.45176 -0.60166,-26.75 v -22.36043 h 46.5 46.5 v 26.75 26.75 h -45.89834 -45.89834 z m 240.39836,-22.36043 -2e-5,-26.75 h 46.5 46.5 l -0.0153,25.75 c -0.008,14.1625 -0.34592,26.21648 -0.75,26.78663 -0.48946,0.69062 -16.00532,1.0244 -46.48467,1 l -45.74998,-0.0366 z m -75.75002,-36.43932 c 0.9625,-0.25153 2.5375,-0.25153 3.5,0 0.9625,0.25152 0.175,0.45732 -1.75,0.45732 -1.925,0 -2.7125,-0.2058 -1.75,-0.45732 z m -72.17105,-8.89401 c 0.048,-1.16495 0.28494,-1.4019 0.60416,-0.60417 0.28888,0.72188 0.25335,1.58438 -0.0789,1.91667 -0.33229,0.33229 -0.56864,-0.25834 -0.52522,-1.3125 z"
         id="path14" /><path
         style="fill:#d48bfc"
         d="m 347.77922,159.83436 c 0.72188,-0.28887 1.58438,-0.25335 1.91667,0.0789 0.33229,0.3323 -0.25834,0.56864 -1.3125,0.52522 -1.16495,-0.048 -1.4019,-0.28494 -0.60417,-0.60416 z M 207.05005,107.15058 c 0.22917,-0.20179 19.31667,-11.203712 42.41667,-24.448717 43.61307,-25.006726 48.36664,-27.19747 58.9601,-27.172523 7.52698,0.01773 14.73171,2.299515 24.37949,7.721159 10.22829,5.74787 69.31898,39.786821 73.66041,42.431781 2.91841,1.77801 0.24178,1.82782 -98.41667,1.83145 -55.77916,0.002 -101.22916,-0.16136 -101,-0.36315 z"
         id="path13" /><path
         style="fill:#fdbe67"
         d="m 209.10799,375.68367 c -1.2973,-0.18359 -7.8223,-3.49431 -14.5,-7.35715 -6.6777,-3.86284 -17.05267,-9.78763 -23.05549,-13.1662 -14.6118,-8.22396 -20.49237,-13.70637 -25.5583,-23.82779 -2.20894,-4.41332 -3.83186,-8.32256 -3.60649,-8.68721 0.22536,-0.36465 20.70182,-0.65509 45.50324,-0.64543 l 45.09349,0.0176 1.88786,3.10435 c 2.39427,3.93706 4.68918,4.39565 21.99691,4.39565 14.57531,0 17.3382,-0.77317 19.02126,-5.32292 0.76898,-2.07873 1.21983,-2.1107 31.48541,-2.23271 l 30.70526,-0.12378 1.49069,2.88267 c 0.81987,1.58546 2.62342,3.31333 4.00789,3.8397 3.58576,1.36331 29.17224,1.09477 33.2911,-0.3494 1.87226,-0.65646 3.89726,-2.09356 4.5,-3.19356 0.60275,-1.1 1.42704,-2.24762 1.83176,-2.55028 1.1091,-0.82938 89.51745,-0.52974 90.35343,0.30624 1.37196,1.37196 -6.504,15.3863 -11.42694,20.33288 -3.46429,3.48092 -11.89606,8.92321 -28.95308,18.68777 l -24.06538,13.7766 -98.82194,0.2234 c -54.35207,0.12286 -99.88338,0.0732 -101.18068,-0.11041 z"
         id="path12" /><path
         style="fill:#8bfd8f"
         d="m 140.96672,242.01747 v -26.5 h 47 47 v 11.34101 c 0,6.23755 -0.29526,18.16255 -0.65613,26.5 l -0.65613,15.15899 h -46.34387 -46.34387 z m 133.39301,24.91821 c 0.33385,-0.86998 0.60699,-1.76083 0.60699,-1.97967 0,-0.21884 1.9125,-1.41954 4.25,-2.66821 3.95949,-2.11514 5.68545,-2.29349 25.25,-2.60916 13.53139,-0.21832 22.87127,0.0748 26.26159,0.82431 4.94037,1.09213 11.23841,5.0729 11.23841,7.10341 0,0.53034 -14.25413,0.91111 -34.10699,0.91111 -30.69027,0 -34.04618,-0.15846 -33.5,-1.58179 z m 107.24584,-12.66821 c -0.34658,-7.8375 -0.71223,-19.65 -0.81256,-26.25 l -0.1824,-12 47.17805,-0.25979 47.17806,-0.25979 v 26.50979 26.50979 h -46.3655 -46.36551 z m -94.43562,-26.80149 c -7.02389,-1.25383 -10.87403,-3.36065 -13.24371,-7.24706 -1.07363,-1.7608 -1.95373,-3.53895 -1.95578,-3.95145 -0.002,-0.4125 15.97126,-0.75 35.49626,-0.75 31.875,0 35.5,0.16338 35.5,1.6 0,2.5445 -6.22637,8.08336 -10.54692,9.38235 -5.02023,1.50935 -38.23415,2.21852 -45.24985,0.96616 z"
         id="path11" /><path
         style="fill:#898ffc"
         d="m 141.96672,160.27351 c 0,-0.72185 1.56826,-4.58488 3.48503,-8.5845 5.45615,-11.38506 10.59873,-15.6532 37.25671,-30.92154 l 23.13403,-13.25 h 102.19113 102.19113 l 23.62098,13.52767 c 18.56181,10.6303 24.72254,14.68512 28.76403,18.93172 4.989,5.24218 9.57247,13.13625 10.92574,18.8173 l 0.66143,2.77669 -51.3651,-0.51971 c -54.51952,-0.55162 -55.84298,-0.55587 -115.11511,-0.36932 -21.0375,0.0662 -43.425,0.0437 -49.75,-0.0501 -6.325,-0.0938 -35.0125,0.0825 -63.75,0.39188 -42.74528,0.46012 -52.25,0.32368 -52.25,-0.75004 z"
         id="path10" /><path
         style="fill:#fc8b89"
         d="m 301.32362,426.50377 c -2.82871,-0.40799 -7.57056,-1.85313 -10.53745,-3.21142 -5.29832,-2.42565 -80.41204,-45.27028 -82.26705,-46.92486 -0.52118,-0.46487 44.47882,-0.82578 100,-0.80202 75.4741,0.0323 100.44291,0.32785 98.9476,1.17127 -1.1,0.62045 -19.55,11.24174 -41,23.60288 -21.45,12.36114 -41.25,23.25158 -44,24.20099 -6.26849,2.16413 -14.46999,2.92565 -21.1431,1.96316 z"
         id="path9" /></g></g></svg>
