<?xml version="1.0" encoding="UTF-8" standalone="no"?>
<!-- Created with Inkscape (http://www.inkscape.org/) -->

<svg
   width="512"
   height="512"
   viewBox="0 0 512 512"
   version="1.1"
   id="svg1"
   xml:space="preserve"
   inkscape:version="1.4 (e7c3feb100, 2024-10-09)"
   sodipodi:docname="faviconIcon.svg"
   xmlns:inkscape="http://www.inkscape.org/namespaces/inkscape"
   xmlns:sodipodi="http://sodipodi.sourceforge.net/DTD/sodipodi-0.dtd"
   xmlns="http://www.w3.org/2000/svg"
   xmlns:svg="http://www.w3.org/2000/svg"><sodipodi:namedview
     id="namedview1"
     pagecolor="#ffffff"
     bordercolor="#111111"
     borderopacity="1"
     inkscape:showpageshadow="0"
     inkscape:pageopacity="0"
     inkscape:pagecheckerboard="1"
     inkscape:deskcolor="#d1d1d1"
     inkscape:document-units="px"
     inkscape:zoom="0.86003092"
     inkscape:cx="230.22428"
     inkscape:cy="233.13115"
     inkscape:window-width="1534"
     inkscape:window-height="771"
     inkscape:window-x="0"
     inkscape:window-y="0"
     inkscape:window-maximized="1"
     inkscape:current-layer="layer1" /><defs
     id="defs1" /><g
     inkscape:label="Layer 1"
     inkscape:groupmode="layer"
     id="layer1"><g
       id="g10"
       transform="matrix(2.3988411,0,0,2.3988411,-361.44378,-132.97053)"><g
         id="g2"
         transform="matrix(1.0239661,0,0,1.0239661,-5.0158464,-6.1644255)"><path
           style="fill:#fae1ec"
           d="m 252.16667,252.43567 c 0.385,-0.15406 0.845,-0.13511 1.02222,0.0421 0.17722,0.17722 -0.13778,0.30327 -0.7,0.28011 -0.6213,-0.0256 -0.74768,-0.15196 -0.32222,-0.32222 z m 1.80397,-10.569 c 0.0109,-0.88 0.1304,-1.17544 0.26562,-0.65652 0.13522,0.51892 0.12633,1.23892 -0.0198,1.6 -0.14609,0.36108 -0.25673,-0.0635 -0.24586,-0.94348 z M 222.66667,197.7382 c -1.76,-0.27879 -3.76026,-0.77534 -4.44501,-1.10344 -1.64664,-0.789 -3.25629,-3.11481 -4.10316,-5.92875 l -0.68719,-2.28337 2.48434,0.49437 c 3.27529,0.65175 9.94646,0.14046 15.45416,-1.18445 18.18268,-4.37394 35.74945,-11.4508 47.11792,-18.98168 5.24851,-3.47679 11.01876,-9.3431 12.98784,-13.20404 l 1.5911,-3.11978 3.46666,0.28868 c 7.68933,0.64031 8.61613,1.97542 8.95191,12.89582 0.21906,7.1243 -0.52842,13.43837 -2.28644,19.31385 -1.03178,3.4483 -3.50736,5.96988 -8.06258,8.21241 -3.21892,1.58467 -3.57274,1.6406 -9.90387,1.56554 -3.61112,-0.0428 -10.28568,0.16884 -14.83235,0.47034 -25.11157,1.6652 -33.91044,2.15062 -39.2,2.16262 -3.98649,0.009 -5.61028,0.179 -5.06667,0.53031 0.44,0.28435 0.56,0.48583 0.26667,0.44773 -0.29333,-0.0381 -1.97333,-0.29736 -3.73333,-0.57616 z m 75.04816,-3.70178 c 0.50316,-0.3867 1.86188,-1.36336 3.01938,-2.17035 2.66012,-1.8546 4.12063,-4.85402 5.44297,-11.17808 2.58675,-12.37108 1.61833,-25.23546 -2.10504,-27.96315 -0.81487,-0.59696 -4.21402,-1.45203 -8.23514,-2.07158 l -2.02968,-0.31273 0.42968,-13.97026 c 0.78901,-25.65383 0.55521,-28.38846 -2.56501,-30.00199 -3.49934,-1.80958 -15.31552,-4.04414 -25.38336,-4.80024 -3.93458,-0.29549 -5.10137,-0.58062 -5.86667,-1.43361 -0.94304,-1.051097 -0.92623,-1.059893 1.31137,-0.686043 C 262.98,99.656675 264,99.650886 264,99.435523 c 0,-0.215363 -1.09679,-1.564123 -2.4373,-2.997244 -4.62339,-4.942777 -6.45739,-11.937183 -4.42441,-16.873558 l 0.72838,-1.768615 1.79213,2.958224 c 2.55716,4.221023 3.42471,7.051839 3.00957,9.820193 -0.30803,2.05413 -0.23662,2.29784 0.62527,2.1339 0.77406,-0.147233 1.00675,-0.778495 1.13794,-3.087111 0.19825,-3.488558 -0.77849,-6.288586 -3.74147,-10.725687 l -2.14559,-3.213034 1.52774,-2.465289 c 0.84026,-1.35591 1.80937,-2.55837 2.15359,-2.672135 0.77668,-0.256694 4.50132,5.159627 6.60274,9.601625 1.81357,3.833537 1.93401,5.947106 0.79646,13.977514 -0.41482,2.928367 -0.65131,5.427217 -0.52552,5.553 0.12578,0.125783 3.04984,0.549954 6.49791,0.942594 10.72488,1.22127 21.99342,3.39949 23.40512,4.52423 0.42344,0.33737 0.53009,3.21141 0.35875,9.66798 -0.1341,5.05334 -0.0348,12.67807 0.22072,16.94385 0.25549,4.26577 0.30355,9.66577 0.10679,12 -0.19677,2.33422 -0.28247,4.32882 -0.19045,4.43243 0.092,0.10362 2.01189,0.39526 4.26639,0.64809 7.77427,0.87185 8.23829,1.7574 8.92365,17.03019 1.02622,22.86854 -1.04652,27.8253 -11.95756,28.5954 -3.32466,0.23466 -3.78977,0.16901 -3.01602,-0.42565 z m -83.15384,-7.17266 c -1.28018,-0.28832 -1.23951,-0.10519 -2.26906,-10.21621 -0.70771,-6.95023 -0.71634,-17.9249 -0.0161,-20.44592 0.53519,-1.92671 0.54584,-1.93255 4.13036,-2.2612 15.20891,-1.39446 53.19335,-2.63728 65.58378,-2.14585 l 9.19,0.3645 -1.45666,2.68368 C 283.60419,166.11635 260.50047,178.5159 232.8,185.393 c -5.14936,1.27841 -15.4168,2.10635 -18.23901,1.47076 z M 217.6,151.24209 c 1.02667,-0.41851 2.6039,-0.7792 3.50497,-0.80151 l 1.63831,-0.0406 -0.68578,-5.2 c -1.04179,-7.89952 -1.23623,-7.30307 2.73085,-8.37691 4.79849,-1.29889 9.88631,-3.9741 19.19523,-10.09297 11.76939,-7.73616 16.76508,-11.80476 19.00505,-15.47809 1.09436,-1.79467 1.34659,-5.62912 0.47714,-7.25371 -0.47939,-0.89575 -0.35621,-0.97575 1.2,-0.77937 0.95383,0.12036 4.25423,0.48873 7.33423,0.8186 6.35377,0.68048 14.7753,2.36148 17.7077,3.53458 3.15611,1.2626 3.25862,2.0603 2.85431,22.21276 -0.1951,9.72498 -0.46773,18.28178 -0.60585,19.01511 l -0.25112,1.33333 -22.78585,0.0473 c -19.81164,0.0412 -30.13777,0.36904 -48.91919,1.55333 -4.09036,0.25792 -4.18953,0.2376 -2.4,-0.49191 z m 2.84977,-20.97542 c -0.68073,-7.87018 -0.44256,-21.3441 0.42133,-23.83528 0.86095,-2.48273 1.28355,-2.63269 9.75486,-3.46144 6.35545,-0.62175 22.91836,-0.75957 27.347,-0.22756 2.51581,0.30222 2.85536,0.50675 3.66144,2.20542 1.39408,2.93783 0.4374,5.15969 -4.04053,9.38394 -3.64547,3.43895 -15.58971,11.76806 -23.32901,16.26809 -4.33192,2.5188 -10.16671,4.86683 -12.09393,4.86683 -1.22194,0 -1.28888,-0.20224 -1.72116,-5.2 z m 5.60573,-29.22968 c 2.17508,-0.99544 12.37051,-1.800078 23.0792,-1.821432 6.5616,-0.01309 7.9156,0.122095 8.52023,0.850632 0.66,0.79525 0.10837,0.83512 -6.73469,0.48676 -6.55572,-0.33373 -22.39324,0.32038 -25.58691,1.05677 -0.58666,0.13528 -0.26169,-0.12245 0.72217,-0.57273 z"
           id="path9"
           sodipodi:nodetypes="ssssssssssssscsssscssssssssssssssscsssssssscssssscsssssssssssssssssssscssscscssssssssssccsccsssssssssssssss" /><path
           style="fill:#080808"
           d="m 259.25217,256.74775 -2.9855,-2.98557 L 248,254.35411 c -12.78856,0.91572 -26.97678,4.11942 -27.36591,6.17922 -0.26243,1.38913 5.38635,1.97029 19.49924,2.00613 8.34925,0.0212 14.26667,0.24068 14.26667,0.52914 0,0.29479 -6.37728,0.41777 -15.86667,0.30598 -10.83995,-0.12771 -31.11649,-1.03444 -13.30889,-6.35201 6.00248,-1.79241 14.04593,-3.1383 22.67912,-3.79484 7.87322,-0.59875 8.15866,-0.66144 7.85235,-1.72453 -1.06552,-3.69796 -1.43867,-7.47242 -1.13721,-11.5032 0.35179,-4.70385 2.85895,-21.38876 3.27676,-21.80657 0.84607,-0.84607 0.69742,1.48673 -0.61398,9.63514 -1.67308,10.39571 -1.94219,19.06274 -0.70084,22.57143 l 0.75475,2.13333 8.53231,0.33653 c 14.6473,0.5777 26.54612,2.21575 29.80933,4.10369 3.38672,1.95941 3.18304,4.03243 -0.52907,5.38457 -4.02817,1.46727 -23.75466,0.56437 -29.13373,-1.33348 -2.6038,-0.91867 -4.93743,-2.38666 -6.76206,-4.27689 z m 33.63991,4.7952 c 1.37065,-0.1641 2.93065,-0.62455 3.46667,-1.02323 0.93779,-0.69751 0.93289,-0.76717 -0.12997,-1.84537 -2.00909,-2.03809 -13.88159,-3.89279 -29.42878,-4.59731 -5.46142,-0.24748 -8.13333,-0.18816 -8.13333,0.18058 0,0.75356 3.15733,3.80539 4.85942,4.69705 5.02574,2.6328 18.83109,3.84959 29.36599,2.58828 z M 258.14505,215.6 c 0.0235,-1.87014 2.0585,-5.40664 3.55713,-6.18161 2.58047,-1.33441 7.49853,-1.9515 15.59577,-1.95688 10.27139,-0.007 24.73212,-0.90664 29.62971,-1.8437 4.99707,-0.9561 9.33901,-3.12312 9.33901,-4.66102 0,-1.68194 -9.61509,-3.09012 -21.0994,-3.09012 -6.47291,0 -7.8714,0.17318 -12.68768,1.57117 -9.08656,2.63749 -22.86577,5.4357 -38.74626,7.8684 -9.3363,1.43021 -29.26609,1.3061 -36.60612,-0.22796 C 199.0116,205.38213 195.2,203.47819 195.2,201.12049 c 0,-1.77491 1.99344,-1.88263 70.66667,-3.81898 l 21.33333,-0.60153 4.26667,-1.63049 c 6.30423,-2.40915 9.98937,-5.08513 11.33992,-8.23456 2.66745,-6.22036 4.08887,-19.79289 2.81777,-26.90553 -0.91646,-5.1282 -2.22082,-6.57847 -6.60295,-7.34159 -5.79679,-1.00947 -5.9074,-0.97378 -7.58055,2.44602 -4.57951,9.36018 -21.0303,19.97784 -41.84086,27.0049 -14.58134,4.92365 -23.9855,6.96702 -30.59549,6.64788 -8.23452,-0.39757 -12.34558,-3.3679 -13.70157,-9.8997 -0.34274,-1.65096 -0.65611,-6.85341 -0.69639,-11.561 -0.0699,-8.17345 -0.0171,-8.63791 1.1717,-10.30465 1.90361,-2.66892 4.81775,-3.87471 10.68743,-4.42214 12.32328,-1.14932 26.01441,-1.68216 50.03225,-1.94718 l 25.69793,-0.28356 0.28282,-3.26752 c 0.57809,-6.679 0.84408,-34.24387 0.35046,-36.31991 -0.27711,-1.16548 -0.89275,-2.40343 -1.36808,-2.751 -2.17892,-1.59327 -14.69917,-4.05004 -24.46573,-4.80075 l -4.57059,-0.35133 0.86425,2.20017 c 0.80344,2.04536 0.79938,2.37003 -0.0577,4.61431 -1.63108,4.27093 -7.02255,8.84815 -21.09813,17.91175 -15.16895,9.76766 -22.82459,11.83166 -26.99717,7.27859 -2.4095,-2.62923 -3.10054,-6.43649 -2.63066,-14.49364 0.82953,-14.22436 1.8903,-16.03127 10.49014,-17.86888 4.80273,-1.02624 17.93269,-1.74549 27.03373,-1.48089 l 9.22918,0.26833 -3.76368,-3.881495 c -4.52082,-4.662339 -5.86709,-7.345965 -5.88255,-11.726114 -0.0115,-3.24914 1.69738,-7.875464 4.21493,-11.411045 0.88476,-1.242528 0.94008,-1.723057 0.42188,-3.664488 -0.80238,-3.006153 -0.06,-5.191133 1.7639,-5.191133 1.06296,0 1.3551,0.303593 1.49794,1.556678 0.0976,0.856173 -0.11503,2.601287 -0.4725,3.878031 l -0.64994,2.321352 2.91801,4.388636 c 1.6049,2.41375 3.20251,4.922177 3.55024,5.574283 0.90866,1.704023 1.63736,6.033149 1.30412,7.747686 -0.48719,2.506638 -1.22738,1.611814 -1.22738,-1.483796 0,-1.622755 -0.36889,-3.842755 -0.81976,-4.933334 -0.82818,-2.003241 -6.15376,-10.200523 -6.6469,-10.231096 -0.50143,-0.03109 -3.1823,4.597262 -3.99174,6.891481 -2.03289,5.761805 -0.43656,10.312151 5.78332,16.485409 l 3.95833,3.928665 4.99171,0.46809 c 12.28126,1.15167 21.2698,2.86725 25.05553,4.78217 3.05196,1.54377 3.2765,3.27868 2.89374,22.35908 -0.17947,8.94666 -0.4513,17.4921 -0.60405,18.98985 l -0.27774,2.72319 3.09545,0.35478 c 4.74987,0.54441 7.81278,1.7295 8.79942,3.40465 3.33968,5.67019 2.12324,27.05663 -1.9326,33.9774 -1.35805,2.31734 -3.37536,3.88573 -8.33128,6.47731 L 292,196.51387 l 8.33857,0.37135 c 12.50971,0.55709 16.99476,1.66386 16.99476,4.19374 0,2.13312 -3.16231,4.17713 -8.21401,5.30924 -5.70523,1.27857 -11.08411,1.71249 -26.45265,2.13398 -9.27722,0.25444 -17.12752,0.7076 -18.27014,1.05467 -2.47537,0.75188 -3.97128,2.30341 -4.76047,4.93752 -0.62452,2.08445 -1.51165,2.73039 -1.49101,1.08563 z M 244.8,205.89675 c 14.57535,-2.19862 34.88515,-6.38938 36.8,-7.59338 0.85864,-0.53989 -12.80668,-0.28827 -34.66667,0.63832 -6.89333,0.2922 -20.70945,0.76054 -30.70248,1.04077 -17.81403,0.49955 -19.96418,0.68309 -19.96418,1.70411 0,1.43504 9.01835,4.26287 16.68675,5.23235 6.14169,0.77647 23.64774,0.21458 31.84658,-1.02217 z m -17.80319,-18.97964 c 2.60509,-0.44892 6.89652,-1.40129 9.53652,-2.11637 26.16169,-7.08627 45.76976,-17.77473 52.81647,-28.79051 3.26922,-5.11062 5.33071,-4.72323 -23.3498,-4.38777 -34.23479,0.40042 -53.33402,1.55403 -56.50848,3.41316 -4.0447,2.36878 -4.729,5.62742 -3.70201,17.62914 0.82324,9.62068 2.22066,12.18145 7.67591,14.06603 3.45762,1.19447 7.36859,1.24832 13.53139,0.18632 z m 3.63528,-54.07696 c 7.48701,-3.69365 22.55675,-13.77839 26.99652,-18.06619 4.52525,-4.37036 5.5103,-6.42439 4.49553,-9.37407 -0.39106,-1.13673 -0.94462,-2.30037 -1.23012,-2.58587 -0.99458,-0.99458 -21.57131,-1.13427 -30.22735,-0.20519 -9.13912,0.98092 -11.28983,1.47903 -13.33625,3.08875 -2.26745,1.78357 -2.96022,4.22801 -3.58302,12.64267 -0.72276,9.76518 -0.16012,13.22037 2.60272,15.9832 1.80555,1.80556 1.86781,1.8229 5.3704,1.49582 2.75567,-0.25733 4.73731,-0.91979 8.91157,-2.97912 z m 25.86376,-65.284593 c 0.0244,-0.98319 -0.19542,-1.433563 -0.62918,-1.289138 -0.86101,0.28668 -1.12605,1.71141 -0.65279,3.5091 0.34728,1.319148 0.40715,1.345607 0.80975,0.357816 0.2391,-0.586667 0.4516,-1.746667 0.47222,-2.577778 z"
           id="path3"
           sodipodi:nodetypes="scsssssssssssscssssssssssssscsssssssscsssssssssssscsssscssssssscssssssscsssssssscsssscsssscssssssssssssssssssssssssssssssssssssss" /></g></g></g></svg>
